Coordinates
version=1
nRows=9
nColumns=24
inDegrees=yes

Units are S.I. units (second, meters, Newtons, ...)
Angles are in degrees.

endheader
time	pelvis_tilt	pelvis_list	pelvis_rotation	pelvis_tx	pelvis_ty	pelvis_tz	hip_flexion_r	hip_adduction_r	hip_rotation_r	knee_angle_r	ankle_angle_r	subtalar_angle_r	mtp_angle_r	hip_flexion_l	hip_adduction_l	hip_rotation_l	knee_angle_l	ankle_angle_l	subtalar_angle_l	mtp_angle_l	lumbar_extension	lumbar_bending	lumbar_rotation
      5.15000000	     12.70388786	     -7.34565940	     11.85282571	      0.49682749	      0.93341798	     -0.25669753	     -6.04918329	     12.67416670	     -6.02291613	    -12.47478559	     21.53935685	     -5.98477966	      0.00000000	     -0.04411787	     -8.30056108	      8.50791041	    -65.19725021	     12.43529608	     -5.67162296	      0.00000000	    -26.78198835	     12.84106577	     -8.56430002
      5.15500000	     12.65579954	     -7.04870729	     11.67825220	      0.50320228	      0.93420215	     -0.25635664	     -6.72739636	     12.43840087	     -5.95004330	    -12.00589677	     21.66212495	     -5.79361962	      0.00000000	      0.72236513	     -7.71323863	      8.49420498	    -64.96965819	     13.11124668	     -5.60339663	      0.00000000	    -26.80549028	     12.41900349	     -8.35513566
      5.16000000	     12.60846681	     -6.75355782	     11.45572466	      0.50953068	      0.93493598	     -0.25599722	     -7.40075967	     12.18808402	     -5.88024418	    -11.55014978	     21.82840644	     -5.51734436	      0.00000000	      1.46432041	     -7.13156200	      8.42064949	    -64.65413092	     13.76851509	     -5.52224583	      0.00000000	    -26.84588100	     11.98202360	     -8.09577337
      5.16500000	     12.64988553	     -6.45494830	     11.10604534	      0.51584817	      0.93574652	     -0.25558234	     -8.17816032	     11.91614008	     -5.75186962	    -11.10249920	     22.02696371	     -5.10607373	      0.00000000	      2.05065587	     -6.56941985	      8.19184263	    -64.21348841	     14.37626197	     -5.52455776	      0.00000000	    -27.01677101	     11.51018373	     -7.65117763
      5.17000000	     12.58660184	     -6.18382070	     10.92154835	      0.52216108	      0.93634962	     -0.25522260	     -8.83638235	     11.69581120	     -5.69258270	    -10.60020782	     22.12138024	     -4.95526332	      0.00000000	      2.80004986	     -6.03578702	      8.14148204	    -63.74605750	     14.98239995	     -5.32021251	      0.00000000	    -27.01988482	     11.10605105	     -7.44344244
      5.17500000	     12.61077989	     -5.90401124	     10.55764904	      0.52847336	      0.93704261	     -0.25476684	     -9.59505756	     11.43125243	     -5.57123835	    -10.12723383	     22.27970124	     -4.58093485	      0.00000000	      3.37726406	     -5.52066690	      7.88394022	    -63.14093278	     15.54505321	     -5.22446007	      0.00000000	    -27.16070315	     10.63712442	     -6.99521698
      5.18000000	     12.62284094	     -5.63321556	     10.26432608	      0.53481968	      0.93766036	     -0.25432438	    -10.35001431	     11.19310398	     -5.46414666	     -9.60629473	     22.36819670	     -4.34871558	      0.00000000	      3.97142288	     -5.03365234	      7.68882853	    -62.46899328	     16.06471064	     -5.02595162	      0.00000000	    -27.25754160	     10.19600667	     -6.63889213
      5.18500000	     12.58852441	     -5.39107092	      9.98610963	      0.54109322	      0.93814557	     -0.25392871	    -11.03179118	     10.97077701	     -5.39692253	     -9.10576212	     22.45138671	     -4.10771492	      0.00000000	      4.61734030	     -4.57128773	      7.51883951	    -61.73789408	     16.58854590	     -4.81728490	      0.00000000	    -27.30629650	      9.79123442	     -6.30405608
      5.19000000	     12.49941653	     -5.17853502	      9.77742263	      0.54739978	      0.93849010	     -0.25357095	    -11.65554438	     10.78869248	     -5.37922467	     -8.57332691	     22.49727215	     -3.95297638	      0.00000000	      5.33033857	     -4.14376798	      7.41921621	    -60.95613562	     17.05964279	     -4.53101776	      0.00000000	    -27.26312729	      9.43535512	     -6.05204890
